<svg width="27" height="23" viewBox="0 0 27 23" fill="none" xmlns="http://www.w3.org/2000/svg">
<path d="M20.8344 5.55286V7.47336H17.7867V5.55286C17.7867 5.13541 18.1208 4.80134 18.5382 4.80134H18.9139V2.92261C18.9139 2.46338 18.5382 2.12933 18.1206 2.12933C17.9118 2.12933 17.7031 1.92061 17.7031 1.71188C17.7031 1.46137 17.9118 1.29443 18.1206 1.29443C19.039 1.29443 19.7488 2.04595 19.7488 2.92263V4.80135H20.1244C20.5003 4.80135 20.8344 5.13543 20.8344 5.55287L20.8344 5.55286Z" fill="#695438"/>
<path d="M25.8852 14.6124H25.0503V11.6065C25.0503 9.81132 23.589 8.35007 21.7939 8.35007L14.112 8.34988L13.6528 3.00605C14.3625 2.88089 14.9053 2.25454 14.9053 1.50302C14.9053 0.668118 14.2373 0 13.4023 0L2.33896 0.00019803C1.50406 0.00019803 0.835938 0.668164 0.835938 1.50322C0.835938 2.21296 1.33695 2.83915 2.00493 2.96447L1.50391 11.9401C2.54774 11.1052 3.88362 10.6042 5.30309 10.6042C8.68485 10.6042 11.4819 13.3596 11.4819 16.7414C11.4819 17.0337 11.4819 17.3676 11.3983 17.6599H14.6547C14.8216 15.0714 16.9509 13.0258 19.5811 13.0258C22.2113 13.0258 24.3406 15.0715 24.5075 17.6599H25.8852C26.0939 17.6599 26.3026 17.4511 26.3026 17.2424V14.988C26.3028 14.7791 26.1359 14.6122 25.8854 14.6122L25.8852 14.6124ZM4.09215 8.72558L4.42622 2.54679H11.1895L11.3983 4.67601L11.7739 8.72573L4.09215 8.72558Z" fill="#695438"/>
<path d="M5.34183 13.7773C3.67187 13.7773 2.33594 15.1133 2.33594 16.7832C2.33594 18.4532 3.67187 19.7891 5.34183 19.7891C7.0118 19.7891 8.34773 18.4532 8.34773 16.7832C8.30595 15.1134 6.97003 13.7773 5.34183 13.7773Z" fill="#695438"/>
<path d="M5.34383 11.4814C2.42132 11.4814 0 13.8611 0 16.7836C0 19.7061 2.3797 22.1275 5.34383 22.1275C8.26633 22.1275 10.6877 19.7478 10.6877 16.7836C10.6461 13.8611 8.26633 11.4814 5.34383 11.4814ZM5.34383 20.6243C3.21461 20.6243 1.50282 18.9125 1.50282 16.7833C1.50282 14.6541 3.21461 12.9423 5.34383 12.9423C7.47304 12.9423 9.18483 14.6541 9.18483 16.7833C9.14305 18.9127 7.43127 20.6243 5.34383 20.6243Z" fill="#695438"/>
<path d="M19.5798 13.9026C17.3254 13.9026 15.4883 15.7395 15.4883 17.9941C15.4883 20.2485 17.3252 22.0856 19.5798 22.0856C21.8342 22.0856 23.6713 20.2487 23.6713 17.9941C23.6713 15.7395 21.8759 13.9026 19.5798 13.9026ZM19.5798 20.457C18.2438 20.457 17.1582 19.3716 17.1582 18.0355C17.1582 16.6996 18.2436 15.614 19.5798 15.614C20.9157 15.614 22.0013 16.6994 22.0013 18.0355C22.0429 19.3298 20.9575 20.457 19.5798 20.457Z" fill="#695438"/>
<path d="M19.5786 16.4075C18.7019 16.4075 17.9922 17.1172 17.9922 17.9939C17.9922 18.8706 18.7019 19.5803 19.5786 19.5803C20.4553 19.5803 21.165 18.8706 21.165 17.9939C21.2068 17.1172 20.4971 16.4075 19.5786 16.4075Z" fill="#695438"/>
</svg>
