<svg width="28" height="27" viewBox="0 0 28 27" fill="none" xmlns="http://www.w3.org/2000/svg">
<path d="M18.5206 15.1738H14C13.7352 15.1738 13.5206 15.4099 13.5206 15.7012V20.1465H9.47943C9.21463 20.1465 9 20.3825 9 20.6738V25.6465C9 25.9377 9.21463 26.1738 9.47943 26.1738H18.5206C18.7854 26.1738 19 25.9377 19 25.6465V15.7013C19.0001 15.4099 18.7854 15.1738 18.5206 15.1738ZM14.4794 21.9472L15.5822 23.1603L14.4794 24.3733V21.9472ZM13.5206 24.3732L12.4178 23.1602L13.5206 21.9472V24.3732ZM15.1576 21.2013H17.363L16.2603 22.4143L15.1576 21.2013ZM15.1576 20.1465L16.2603 18.9334L17.3631 20.1465H15.1576ZM18.0411 19.4006L16.9385 18.1875L18.0411 16.9745V19.4006ZM16.2603 17.4417L15.1576 16.2286H17.363L16.2603 17.4417ZM15.5822 18.1875L14.4794 19.4006V16.9746L15.5822 18.1875ZM11.7397 22.4143L10.6369 21.2013H12.8424L11.7397 22.4143ZM11.0616 23.1602L9.95886 24.3732V21.9472L11.0616 23.1602ZM11.7397 23.9061L12.8424 25.1192H10.637L11.7397 23.9061ZM16.2603 23.9061L17.363 25.1192H15.1576L16.2603 23.9061ZM16.9384 23.1602L18.0411 21.9472V24.3731L16.9384 23.1602Z" fill="#695438"/>
<path d="M27.4548 6.61114L14.4407 0.104151C14.1633 -0.0347169 13.8365 -0.0347169 13.559 0.104151L0.545006 6.61114C0.210988 6.77819 0 7.11947 0 7.49299V25.3872C0 25.9317 0.441398 26.3731 0.985933 26.3731H4.23947C4.78391 26.3731 5.22541 25.9318 5.22541 25.3872V10.1056H22.7746V25.3872C22.7746 25.9317 23.216 26.3731 23.7605 26.3731H27.0141C27.5585 26.3731 28 25.9318 28 25.3872V7.49299C27.9998 7.11947 27.7888 6.77819 27.4548 6.61114ZM26.645 24.8385H24V9.0322C24 8.48776 23.5766 8.58059 23.0321 8.58059H4.96771C4.42327 8.58059 4.06449 8.48766 4.06449 9.0322V24.8385H1.35483V7.67737L13.9999 1.35483L26.645 7.67737V24.8385Z" fill="#695438"/>
<path d="M1 9V7.5L14 1L27 7.5V9V25H24V9H5V25H1V9Z" fill="#695438"/>
</svg>
