<svg width="36" height="23" viewBox="0 0 36 23" fill="none" xmlns="http://www.w3.org/2000/svg">
<path d="M25.7926 2.76534V7.07036H31.4607V6.33485L29.3114 2.76882L25.7926 2.76534ZM28.6267 16.4159C27.5941 16.4159 26.7593 17.2072 26.7593 18.1868C26.7593 19.1628 27.5941 19.9541 28.6267 19.9541C29.6592 19.9541 30.4941 19.1628 30.4941 18.1868C30.4941 17.2107 29.6592 16.4159 28.6267 16.4159ZM8.31616 16.4159C7.28361 16.4159 6.44878 17.2072 6.44878 18.1868C6.44878 19.1628 7.28727 19.9541 8.31616 19.9541C9.34505 19.9541 10.1835 19.1628 10.1835 18.1868C10.1872 17.2107 9.34871 16.4159 8.31616 16.4159ZM4.867 14.4429H1.059C0.473159 14.4429 0.000821114 14.8926 0.000821114 15.4469V17.6255C0.000821114 18.1798 0.47682 18.6295 1.059 18.6295H3.13875C3.12411 18.4726 3.11312 18.3157 3.11312 18.1589C3.11678 16.6809 3.79417 15.3597 4.867 14.4429ZM8.31616 14.3244C6.06432 14.3244 4.23721 16.0534 4.23721 18.1868C4.23721 20.3201 6.06432 22.0491 8.31616 22.0491C10.568 22.0491 12.3951 20.3201 12.3951 18.1868C12.3988 16.0534 10.5717 14.3244 8.31616 14.3244ZM8.31616 19.9576C7.28361 19.9576 6.44878 19.1663 6.44878 18.1902C6.44878 17.2142 7.28727 16.4194 8.31616 16.4194C9.34505 16.4194 10.1835 17.2107 10.1835 18.1902C10.1872 19.1628 9.34871 19.9576 8.31616 19.9576ZM28.6267 14.3244C26.3748 14.3244 24.5477 16.0534 24.5477 18.1868C24.5477 20.3201 26.3748 22.0491 28.6267 22.0491C30.8822 22.0491 32.7093 20.3201 32.7093 18.1868C32.7093 16.0534 30.8785 14.3244 28.6267 14.3244ZM28.6267 19.9576C27.5941 19.9576 26.7593 19.1663 26.7593 18.1902C26.7593 17.2142 27.5941 16.4194 28.6267 16.4194C29.6592 16.4194 30.4941 17.2107 30.4941 18.1902C30.4941 19.1628 29.6592 19.9576 28.6267 19.9576ZM22.9879 14.4429H11.9557C13.0285 15.3597 13.7059 16.6843 13.7059 18.1589C13.7059 18.3192 13.6949 18.4761 13.6803 18.6295H23.3248C23.3101 18.483 23.3028 18.3366 23.3028 18.1868C23.3028 16.6878 24.0058 15.3493 25.1153 14.4429H23.5518H22.9879ZM34.8256 14.4429H34.7341H31.955C33.0644 15.3528 33.7675 16.6913 33.7675 18.1868C33.7675 18.3366 33.7565 18.483 33.7418 18.6295H34.822C35.4078 18.6295 35.8802 18.1798 35.8802 17.6255V15.4469C35.8838 14.8926 35.4078 14.4429 34.8256 14.4429ZM34.7304 8.08823L30.1133 0.673828H24.61C24.0241 0.673828 23.5518 1.1235 23.5518 1.67775V14.4429H25.1153C26.0343 13.6935 27.2243 13.2334 28.5351 13.2334C29.8423 13.2334 31.036 13.69 31.955 14.4429H34.7341V8.08823H34.7304ZM31.4607 7.07036H25.7926V2.76534H29.3114L31.4607 6.33137V7.07036ZM20.4322 13.3519H22.5522V11.5253H22.5412C22.446 12.5466 21.5379 13.3519 20.4322 13.3519ZM2.12085 13.3519H20.4029H20.4322C21.5379 13.3519 22.446 12.5501 22.5412 11.5253C22.5485 11.466 22.5522 11.4068 22.5522 11.3475V8.08823C22.5522 6.97973 21.5746 6.33485 20.4029 6.33485L2.12085 7.07026C0.949158 7.07026 0 7.39474 0 8.49976L0.000821114 11.344C0.000821114 12.4525 0.949158 13.3519 2.12085 13.3519Z" fill="#695438"/>
</svg>
